# xmcd
#
# Track frame offsets:
#	150
#	30602
#	64094
#	108626
#	128330
#	157866
#	199962
#	223671
# Disc length: 3400 seconds
# Revision: 1
# Processed by: cddbd v1.5.2PL0 Copyright (c) Steve Scherf et al.
#
# Submitted via: libkcddb 0.31
#
DISCID=6a0d4608
DTITLE=Sonny Clark - Blue Note Legends
DYEAR=1900
DGENRE=
TTITLE0=Shoutin' On A Riff
TTITLE1=Dial S For Sonny
TTITLE2=Be-Bop (Rudy Van Gelder 24-Bit Mastering '01) (2001 Digital Remaster)
TTITLE3=I Didn't Know What Time It Was (Rudy Van Gelder Edition) (2001 Digital Remaster)
TTITLE4=Softly As In A Morning Sunrise (Rudy Van Gelder 240-Bit Mastering) (Rudy Van Gelder 24-Bit Mastering '01) (2001 Digital Remaster)
TTITLE5=Cool Struttin'
TTITLE6=Bootin' It (Rudy Van gelder Edition) (2004 Digital Remaster)
TTITLE7=It Could Happen To You (Rudy Van gelder Edition) (2004 Digital Remaster)
EXTD=
EXTT0=
EXTT1=
EXTT2=
EXTT3=
EXTT4=
EXTT5=
EXTT6=
EXTT7=
PLAYORDER=
